<svg width="228" height="228" viewBox="0 0 228 228" fill="none" xmlns="http://www.w3.org/2000/svg">
<g filter="url(#filter0_d_213_1868)">
<path d="M24 108C24 58.2944 64.2944 18 114 18C163.706 18 204 58.2944 204 108C204 157.706 163.706 198 114 198C64.2944 198 24 157.706 24 108Z" fill="white"/>
<path d="M147.75 78.75V99C147.75 101.531 145.641 103.5 143.25 103.5H123C120.469 103.5 118.5 101.531 118.5 99C118.5 96.6094 120.469 94.5 123 94.5H131.859C127.641 89.0156 121.031 85.6406 113.859 85.6406C101.484 85.6406 91.5 95.625 91.5 108C91.5 120.516 101.484 130.5 113.859 130.5C118.781 130.5 123.422 128.953 127.359 126C129.328 124.594 132.141 125.016 133.688 126.984C135.234 128.953 134.812 131.766 132.844 133.312C127.359 137.391 120.75 139.5 113.859 139.5C96.5625 139.5 82.5 125.438 82.5 108C82.5 90.7031 96.5625 76.6406 113.859 76.6406C123.703 76.6406 132.703 81.1406 138.75 88.7344V78.75C138.75 76.3594 140.719 74.25 143.25 74.25C145.641 74.25 147.75 76.3594 147.75 78.75Z" fill="#8C5BDC"/>
</g>
<defs>
<filter id="filter0_d_213_1868" x="0" y="0" width="228" height="228" filterUnits="userSpaceOnUse" color-interpolation-filters="sRGB">
<feFlood flood-opacity="0" result="BackgroundImageFix"/>
<feColorMatrix in="SourceAlpha" type="matrix" values="0 0 0 0 0 0 0 0 0 0 0 0 0 0 0 0 0 0 127 0" result="hardAlpha"/>
<feOffset dy="6"/>
<feGaussianBlur stdDeviation="12"/>
<feComposite in2="hardAlpha" operator="out"/>
<feColorMatrix type="matrix" values="0 0 0 0 0 0 0 0 0 0 0 0 0 0 0 0 0 0 0.05 0"/>
<feBlend mode="normal" in2="BackgroundImageFix" result="effect1_dropShadow_213_1868"/>
<feBlend mode="normal" in="SourceGraphic" in2="effect1_dropShadow_213_1868" result="shape"/>
</filter>
</defs>
</svg>
